<?xml version="1.0" encoding="iso-8859-1"?>
<!-- Generator: Adobe Illustrator 16.0.0, SVG Export Plug-In . SVG Version: 6.00 Build 0)  -->
<!DOCTYPE svg PUBLIC "-//W3C//DTD SVG 1.1//EN" "http://www.w3.org/Graphics/SVG/1.1/DTD/svg11.dtd">
<svg version="1.1" id="Capa_1" xmlns="http://www.w3.org/2000/svg" xmlns:xlink="http://www.w3.org/1999/xlink" x="0px" y="0px"
	 width="31.98px" height="31.98px" viewBox="0 0 31.98 31.98" style="enable-background:new 0 0 31.98 31.98;" xml:space="preserve"
	>
<g>
	<g>
		<path d="M27.23,19.923c1.399,0,2.535-1.135,2.535-2.539c0-0.874,0.308-1.676-0.369-2.13c-0.402-0.275-2.184-0.406-2.709-0.406
			c-0.625,0-1.438,0.51-1.881,0.885c-0.55,0.465-0.115,0.874-0.115,1.65C24.691,18.789,25.826,19.923,27.23,19.923z M25.462,17.136
			c0.465-0.085,0.783,0.068,0.783,0.068l0.776-0.379c0,0-0.396,0.574-0.039,0.379c0.791-0.269,1.681-0.155,2.131-0.066
			c0.017,0.1,0.029,0.2,0.029,0.305c0,1.045-0.828,1.891-1.856,1.891c-1.024,0-1.854-0.846-1.854-1.891
			C25.432,17.338,25.445,17.238,25.462,17.136z"/>
		<path d="M31.964,23.964l-2.948-3.625h-3.283l-1.701-1.48c0.003-0.009,0.007-0.017,0.01-0.025L23.073,18
			c-0.003,0.004-0.009,0.008-0.013,0.013l-1.174-1.021l0.327-0.131l-2.897-8.343h1.029h0.693l-0.325-0.614
			c-0.008-0.015-0.737-1.411-1.022-2.736c0-0.019,0.006-0.034,0.006-0.054c0-0.257-0.04-0.506-0.098-0.748
			c-0.004-0.075-0.01-0.148-0.013-0.227c-0.042-1.214-0.101-2.878-2.999-2.878c-1.128,0-1.983,0.293-2.545,0.872
			c-0.793,0.813-0.861,2.028-0.834,2.995c0.044,1.557-0.901,2.69-0.909,2.703L11.715,8.52h1.692l-2.881,8.351L10.849,17
			l-1.143,0.994c-0.3-0.365-0.789-0.666-1.501-0.797c-0.019-0.343-0.086-0.674-0.21-0.977c-0.158-0.913-0.681-2.159-2.485-2.201
			c-2.315-0.056-3.115,1.802-3.208,2.696c-0.029,0.134-0.037,0.274-0.047,0.414c-1.745,0.306-2.977,3.167-0.489,3.188
			c-0.101-0.953,0.318-1.843,0.558-2.264c0.319,1.311,1.496,2.292,2.902,2.292c1.467,0,2.685-1.063,2.94-2.459
			c0.148,0.165,0.388,0.488,0.559,0.963l-1.806,1.571H5.862H4.604H3.438L0,24.449v0.685l0.112-0.028l0.64,0.159l2.826-3.097
			l0.102,1.287L1.792,27.14h1.916v3.204H3.384v0.375H4.86v-0.375V27.14h0.554v3.204h0.003v0.375h1.477v-0.375H6.568V27.14H9.04
			l-2.143-3.686l0.119-1.563l1.878-1.808c-0.004,0.078,0.002,0.15-0.008,0.234c0.779-0.021,1.239-0.676,1.199-1.386l1.638-1.58
			l-0.358-0.146l0.763,0.305l1.797-4.93l0.18,2.285l-2.903,8.038h3.351v6.998H14.11v0.816h2.003v-0.816v-6.998h0.75v6.998v0.816
			h2.004v-0.816h-0.439v-6.998h2.6l-2.562-8.038l0.14-2.813l1.988,5.458l0.274-0.109l0.157-0.063l4.25,4.812l0.123,4.82h0.504v3.163
			h-0.319v0.371h1.459v-0.371V26.97h0.546v3.163v0.371h1.458v-0.371h-0.319V26.97h0.611v-4.083l2.012,2.065l0.631-0.157v-0.849
			L31.964,23.964z M5.227,19.498c-1.184,0-2.147-0.963-2.147-2.149c0-0.022,0.006-0.043,0.006-0.067l0.046-0.037
			c0,0,1.526,0.177,2.011,0.045v-1.142c0,0,0.764,1.449,1.203,1.296c0-0.834,0.254-0.922,0.254-0.922s0.326,0.777,0.769,0.905
			C7.324,18.574,6.384,19.498,5.227,19.498z M17.219,7.336l-0.004,0.871l-0.001,0.149l-0.848,1.286l-0.853-1.207V8.108V7.672v-0.46
			c-0.78-0.379-1.323-1.172-1.323-2.097c0-0.389,0.104-0.751,0.273-1.074l1.233-0.117l2.976,0.274
			c0.12,0.281,0.188,0.592,0.188,0.917C18.861,6.161,18.166,7.038,17.219,7.336z"/>
	</g>
</g>
<g>
</g>
<g>
</g>
<g>
</g>
<g>
</g>
<g>
</g>
<g>
</g>
<g>
</g>
<g>
</g>
<g>
</g>
<g>
</g>
<g>
</g>
<g>
</g>
<g>
</g>
<g>
</g>
<g>
</g>
</svg>
