<?xml version="1.0" encoding="iso-8859-1"?>
<!-- Generator: Adobe Illustrator 16.0.0, SVG Export Plug-In . SVG Version: 6.00 Build 0)  -->
<!DOCTYPE svg PUBLIC "-//W3C//DTD SVG 1.1//EN" "http://www.w3.org/Graphics/SVG/1.1/DTD/svg11.dtd">
<svg version="1.1" id="Capa_1" xmlns="http://www.w3.org/2000/svg" xmlns:xlink="http://www.w3.org/1999/xlink" x="0px" y="0px"
	 width="545.062px" height="545.062px" viewBox="0 0 545.062 545.062" style="enable-background:new 0 0 545.062 545.062;"
	 xml:space="preserve">
<g>
	<g>
		<path d="M191.25,363.021c0,16.036,13.005,29.041,29.042,29.041h104.48c16.036,0,29.041-13.005,29.041-29.041v-70.954
			l57.375-19.364v-33.641h-57.375v-48.635l57.375-19.364v-27.626h-57.375v-40.144l57.375-19.364V57.375h-57.375V29.042
			C353.812,13.005,340.808,0,324.771,0h-104.48c-16.037,0-29.042,13.005-29.042,29.042v28.333h-57.375v26.564l57.375,19.364v40.134
			h-57.375v27.626l57.375,19.364v48.635h-57.375v33.641l57.375,19.364V363.021z M275.008,58.522
			c19.383,0,35.095,15.711,35.095,35.094c0,19.383-15.712,35.095-35.095,35.095S239.914,113,239.914,93.617
			C239.914,74.234,255.625,58.522,275.008,58.522z M275.008,160.172c19.383,0,35.095,15.711,35.095,35.094
			s-15.712,35.095-35.095,35.095s-35.094-15.711-35.094-35.095S255.625,160.172,275.008,160.172z M275.008,261.821
			c19.383,0,35.095,15.711,35.095,35.095c0,19.383-15.712,35.094-35.095,35.094s-35.094-15.711-35.094-35.094
			S255.625,261.821,275.008,261.821z"/>
		<rect x="219.938" y="420.75" width="105.188" height="124.312"/>
	</g>
</g>
<g>
</g>
<g>
</g>
<g>
</g>
<g>
</g>
<g>
</g>
<g>
</g>
<g>
</g>
<g>
</g>
<g>
</g>
<g>
</g>
<g>
</g>
<g>
</g>
<g>
</g>
<g>
</g>
<g>
</g>
</svg>
