<?xml version="1.0" encoding="iso-8859-1"?>
<!-- Generator: Adobe Illustrator 16.0.0, SVG Export Plug-In . SVG Version: 6.00 Build 0)  -->
<!DOCTYPE svg PUBLIC "-//W3C//DTD SVG 1.1//EN" "http://www.w3.org/Graphics/SVG/1.1/DTD/svg11.dtd">
<svg version="1.1" id="Capa_1" xmlns="http://www.w3.org/2000/svg" xmlns:xlink="http://www.w3.org/1999/xlink" x="0px" y="0px"
	 width="403.457px" height="403.456px" viewBox="0 0 403.457 403.456" style="enable-background:new 0 0 403.457 403.456;"
	 xml:space="preserve">
<g>
	<path d="M0,30.363v82.721h403.457V30.363H0z M75.791,107.025L44.777,36.41H70.5l31.014,70.616H75.791z M158.506,107.025
		L127.492,36.41h25.724l31.014,70.616H158.506z M237.695,107.025L206.687,36.41h25.725l31.008,70.616H237.695z M320.411,107.025
		L289.403,36.41h25.724l31.008,70.616H320.411z M0,233.126h403.457v-82.721H0V233.126z M315.126,156.457l31.008,70.616h-25.724
		l-31.008-70.616H315.126z M232.412,156.457l31.008,70.616h-25.725l-31.008-70.616H232.412z M153.216,156.457l31.014,70.616h-25.724
		l-31.014-70.616H153.216z M70.5,156.457l31.014,70.616H75.791l-31.014-70.616H70.5z M329.194,358.718h9.836v14.375h-41.612v-14.375
		h9.079v-93.059H87.086v93.059h9.46v14.375H54.935v-14.375h9.46v-93.059h-9.46v-14.375h283.716v14.375h-9.457V358.718z"/>
</g>
<g>
</g>
<g>
</g>
<g>
</g>
<g>
</g>
<g>
</g>
<g>
</g>
<g>
</g>
<g>
</g>
<g>
</g>
<g>
</g>
<g>
</g>
<g>
</g>
<g>
</g>
<g>
</g>
<g>
</g>
</svg>
