<?xml version="1.0" encoding="iso-8859-1"?>
<!-- Generator: Adobe Illustrator 16.0.0, SVG Export Plug-In . SVG Version: 6.00 Build 0)  -->
<!DOCTYPE svg PUBLIC "-//W3C//DTD SVG 1.1//EN" "http://www.w3.org/Graphics/SVG/1.1/DTD/svg11.dtd">
<svg version="1.1" id="Capa_1" xmlns="http://www.w3.org/2000/svg" xmlns:xlink="http://www.w3.org/1999/xlink" x="0px" y="0px"
	 width="590.325px" height="590.325px" viewBox="0 0 590.325 590.325" style="enable-background:new 0 0 590.325 590.325;"
	 xml:space="preserve">
<g>
	<path d="M359.551,198.9c-17.852,31.875-52.275,45.9-73.951,31.875c-22.95-14.025-26.775-49.725-7.65-80.325
		c19.125-30.6,52.274-45.9,73.95-31.875C373.575,132.6,377.401,168.3,359.551,198.9z M167.025,233.325
		c25.5,6.375,53.55-15.3,63.75-51c10.2-35.7-3.825-68.85-29.325-76.5c-25.5-6.375-53.55,15.3-63.75,51
		C127.5,192.525,141.525,226.95,167.025,233.325z M484.5,367.2c-8.926-24.226-44.625-34.425-77.775-22.95
		C372.301,357,351.901,387.6,362.1,411.825c8.926,24.225,44.625,34.425,77.775,22.95C474.301,423.3,494.7,392.7,484.5,367.2z
		 M434.776,295.8c29.324-20.4,40.799-54.825,25.5-76.5c-15.301-21.675-52.275-21.675-81.6-1.275
		c-29.326,20.4-40.801,54.825-25.5,76.5C369.75,317.475,405.45,317.475,434.776,295.8z M116.025,291.975
		C67.576,344.25,145.351,341.7,198.9,390.15c52.275,48.449,61.2,130.05,109.651,77.774c48.449-52.274,44.625-135.149-7.65-183.6
		C247.351,235.875,165.75,238.425,116.025,291.975z M590.325,294.525c0,163.199-132.6,295.8-295.799,295.8S0,457.725,0,294.525
		C0,131.325,132.601,0,294.525,0C457.725,0,590.325,131.325,590.325,294.525z M539.325,294.525
		C539.325,160.65,429.676,51,294.525,51C159.375,51,51,160.65,51,294.525c0,135.149,109.65,244.8,244.8,244.8
		C429.676,539.325,539.325,429.675,539.325,294.525z"/>
</g>
<g>
</g>
<g>
</g>
<g>
</g>
<g>
</g>
<g>
</g>
<g>
</g>
<g>
</g>
<g>
</g>
<g>
</g>
<g>
</g>
<g>
</g>
<g>
</g>
<g>
</g>
<g>
</g>
<g>
</g>
</svg>
