<?xml version="1.0" encoding="iso-8859-1"?>
<!-- Generator: Adobe Illustrator 18.0.0, SVG Export Plug-In . SVG Version: 6.00 Build 0)  -->
<!DOCTYPE svg PUBLIC "-//W3C//DTD SVG 1.1//EN" "http://www.w3.org/Graphics/SVG/1.1/DTD/svg11.dtd">
<svg version="1.1" id="Capa_1" xmlns="http://www.w3.org/2000/svg" xmlns:xlink="http://www.w3.org/1999/xlink" x="0px" y="0px"
	 viewBox="0 0 457.722 457.722" style="enable-background:new 0 0 457.722 457.722;" xml:space="preserve">
<path d="M434.047,28.076c-13.07,0-23.676,10.597-23.676,23.675v38.357H47.351V51.75c0-13.078-10.605-23.675-23.676-23.675
	C10.604,28.076,0,38.672,0,51.75v354.221c0,13.078,10.604,23.675,23.675,23.675c13.07,0,23.676-10.597,23.676-23.675V267.079
	h363.021v138.893c0,13.078,10.605,23.675,23.676,23.675c13.07,0,23.675-10.597,23.675-23.675V51.75
	C457.722,38.672,447.117,28.076,434.047,28.076z M48.337,235.512v-57.841l27.667-55.996h70.424L90.169,235.512H48.337z
	 M161.797,235.512l56.259-113.837h70.424l-56.259,113.837H161.797z M405.438,172.463l-31.166,63.049h-70.424l56.259-113.837h45.331
	V172.463z"/>
<g>
</g>
<g>
</g>
<g>
</g>
<g>
</g>
<g>
</g>
<g>
</g>
<g>
</g>
<g>
</g>
<g>
</g>
<g>
</g>
<g>
</g>
<g>
</g>
<g>
</g>
<g>
</g>
<g>
</g>
</svg>
